<?xml version="1.0" encoding="UTF-8" standalone="no"?>
<svg
   xmlns:dc="http://purl.org/dc/elements/1.1/"
   xmlns:cc="http://creativecommons.org/ns#"
   xmlns:rdf="http://www.w3.org/1999/02/22-rdf-syntax-ns#"
   xmlns:svg="http://www.w3.org/2000/svg"
   xmlns="http://www.w3.org/2000/svg"
   xmlns:sodipodi="http://sodipodi.sourceforge.net/DTD/sodipodi-0.dtd"
   xmlns:inkscape="http://www.inkscape.org/namespaces/inkscape"
   width="169.20267mm"
   height="62.354671mm"
   viewBox="0 0 169.20267 62.354671"
   version="1.1"
   id="svg989"
   inkscape:version="1.0.1 (1.0.1+r74)"
   sodipodi:docname="guy_girl_lock.svg">
  <defs
     id="defs983">
    <clipPath
       clipPathUnits="userSpaceOnUse"
       id="clipPath449">
      <path
         d="M 0,700 H 1000 V 0 H 0 Z"
         id="path447" />
    </clipPath>
    <clipPath
       clipPathUnits="userSpaceOnUse"
       id="clipPath373">
      <path
         d="M 0,700 H 1000 V 0 H 0 Z"
         id="path371" />
    </clipPath>
    <clipPath
       clipPathUnits="userSpaceOnUse"
       id="clipPath389">
      <path
         d="M 0,700 H 1000 V 0 H 0 Z"
         id="path387" />
    </clipPath>
  </defs>
  <sodipodi:namedview
     id="base"
     pagecolor="#ffffff"
     bordercolor="#666666"
     borderopacity="1.0"
     inkscape:pageopacity="0.0"
     inkscape:pageshadow="2"
     inkscape:zoom="0.35"
     inkscape:cx="314.03877"
     inkscape:cy="80.692747"
     inkscape:document-units="mm"
     inkscape:current-layer="layer1"
     inkscape:document-rotation="0"
     showgrid="false"
     inkscape:window-width="1514"
     inkscape:window-height="1016"
     inkscape:window-x="203"
     inkscape:window-y="27"
     inkscape:window-maximized="0" />
  <metadata
     id="metadata986">
    <rdf:RDF>
      <cc:Work
         rdf:about="">
        <dc:format>image/svg+xml</dc:format>
        <dc:type
           rdf:resource="http://purl.org/dc/dcmitype/StillImage" />
        <dc:title></dc:title>
      </cc:Work>
    </rdf:RDF>
  </metadata>
  <g
     inkscape:label="Layer 1"
     inkscape:groupmode="layer"
     id="layer1"
     transform="translate(-22.743908,-66.34052)">
    <g
       id="g367"
       transform="matrix(0.53324307,0,0,-0.53324307,-21.529652,292.02731)">
      <g
         id="g369"
         clip-path="url(#clipPath373)">
        <g
           id="g375"
           transform="translate(105.7803,366.7646)">
          <path
             d="m 0,0 c 0.167,-1.574 0.311,-2.981 0.468,-4.387 0.23,-2.057 0.496,-4.109 0.697,-6.169 0.189,-1.944 1.067,-2.816 3.025,-2.757 4.266,0.129 8.532,0.288 12.797,0.469 0.696,0.03 1.009,-0.077 1.082,-0.875 0.311,-3.391 0.715,-6.773 1.057,-10.161 0.137,-1.37 -0.609,-2.363 -1.987,-2.406 -3.724,-0.118 -7.451,-0.494 -11.174,-0.232 -3.619,0.255 -6.897,3.499 -7.337,7.13 -0.321,2.654 -0.523,5.322 -0.785,7.984 -0.046,0.475 -0.094,0.953 -0.192,1.419 -0.279,1.321 -1.469,2.211 -2.871,2.178 -1.394,-0.032 -2.556,-1.066 -2.757,-2.454 -0.181,-1.252 0.613,-2.654 1.882,-2.976 0.883,-0.224 1.063,-0.709 1.082,-1.48 0.039,-1.56 0.099,-3.12 0.198,-4.677 0.044,-0.691 -0.233,-0.882 -0.879,-0.877 -1.444,0.011 -2.483,0.722 -3.293,1.825 -1.205,1.642 -1.662,3.567 -1.964,5.528 -0.671,4.344 -0.493,8.708 -0.138,13.06 0.201,2.464 1.636,4.273 3.655,5.553 1.779,1.128 3.481,2.192 4.857,3.932 1.887,2.388 4.823,3.121 7.763,3.42 2.891,0.294 5.724,-0.072 8.435,-1.187 1.13,-0.465 2.19,-1.049 3.081,-1.888 2.811,-2.646 6.201,-4.2 9.846,-5.281 1.543,-0.457 1.67,-0.761 0.763,-2.136 -1.041,-1.577 -2.62,-2.421 -4.361,-2.91 -1.076,-0.301 -1.592,-0.757 -1.754,-1.938 -0.242,-1.77 -2.697,-3.685 -4.416,-3.735 -0.467,-0.014 -0.511,0.27 -0.556,0.6 -0.145,1.073 -0.307,2.144 -0.432,3.219 -0.079,0.683 -0.368,0.972 -1.108,0.961 C 12.007,-1.29 9.33,-1.267 6.652,-1.266 4.421,-1.266 2.193,-1.239 0,0"
             style="fill:#231f20;fill-opacity:1;fill-rule:nonzero;stroke:none"
             id="path377" />
        </g>
        <g
           id="g379"
           transform="translate(93.4903,336.2434)">
          <path
             d="m 0,0 c 1.689,-0.001 3.378,-0.018 5.066,0.008 0.62,0.01 0.939,-0.208 1.028,-0.838 0.2,-1.43 0.716,-2.621 2.268,-3.106 0.467,-0.146 0.871,-0.523 1.28,-0.827 2.199,-1.639 4.515,-1.198 6.748,-0.221 1.608,0.704 2.557,2.127 2.761,3.882 0.125,1.081 0.587,1.335 1.602,1.315 3.026,-0.062 6.055,0.008 9.081,-0.029 4.102,-0.05 7.635,-1.541 10.614,-4.349 0.603,-0.569 1.147,-1.201 1.77,-1.744 0.59,-0.515 0.61,-0.871 0.005,-1.436 -3.598,-3.36 -7.723,-5.873 -12.388,-7.374 -12.63,-4.065 -24.143,-1.842 -34.437,6.502 -2.128,1.724 -3.96,3.779 -5.592,6 -0.424,0.578 -0.365,0.835 0.303,1.092 1.743,0.668 3.532,1.086 5.398,1.12 C -2.996,0.023 -1.498,0.001 0,0"
             style="fill:#231f20;fill-opacity:1;fill-rule:nonzero;stroke:none"
             id="path381" />
        </g>
      </g>
    </g>
    <g
       id="g383"
       transform="matrix(0.53324307,0,0,-0.53324307,-21.529652,292.02731)">
      <g
         id="g385"
         clip-path="url(#clipPath389)">
        <g
           id="g391"
           transform="translate(360.56,357.3331)">
          <path
             d="m 0,0 c -4.853,7.686 -2.697,15.448 2.98,19.75 3.896,2.953 8.313,3.327 12.921,2.328 8.568,-1.857 14.891,-8.54 16.36,-17.238 0.168,-0.994 0.253,-2.003 0.252,-3.021 -0.009,-7.264 0.012,-14.528 -0.016,-21.793 -0.003,-0.809 0.235,-1.21 1.003,-1.518 2.363,-0.947 4.288,-2.524 6.011,-4.381 0.55,-0.592 0.126,-0.886 -0.22,-1.241 -4.44,-4.554 -9.752,-7.63 -15.952,-8.997 -11.134,-2.455 -21.045,0.11 -29.678,7.575 -1.557,1.346 -1.393,1.085 0.078,2.308 1.144,0.951 2.336,1.849 3.437,2.847 2.123,1.923 4.694,2.75 7.44,3.17 1.595,0.244 3.207,0.154 4.813,0.183 0.73,0.013 1.046,-0.292 1.038,-0.994 0,-0.029 0.004,-0.059 0.005,-0.089 0.068,-2.104 0.789,-3.863 2.945,-4.52 2.324,-0.709 4.474,-0.218 6.281,1.481 0.766,0.72 0.843,1.659 0.84,2.636 -0.016,5.299 -0.019,10.598 -0.027,15.898 0,0.268 0.013,0.536 -0.004,0.803 -0.038,0.592 0.112,0.848 0.809,0.74 1.03,-0.161 1.941,0.456 2.345,1.406 0.101,0.238 0.131,0.453 -0.017,0.676 -0.114,0.174 -0.273,0.336 -0.329,0.528 -0.6,2.059 -2.033,2.432 -4.009,2.351 C 16.505,0.774 13.917,1.729 11.58,3.278 10.415,4.051 9.304,4.905 8.16,5.709 5.825,7.35 3.276,8.244 0.372,8.053 -0.449,7.999 -0.624,7.693 -0.55,6.955 -0.342,4.883 -0.179,2.807 -0.002,0.733 0.012,0.565 0,0.394 0,0"
             style="fill:#231f20;fill-opacity:1;fill-rule:nonzero;stroke:none"
             id="path393" />
        </g>
      </g>
    </g>
    <g
       id="g443"
       transform="matrix(0.53324307,0,0,-0.53324307,-21.529652,292.02731)">
      <g
         id="g445"
         clip-path="url(#clipPath449)">
        <g
           id="g451"
           transform="translate(233.2636,362.953)">
          <path
             d="M 0,0 C -0.346,0.205 -0.715,0.346 -1.1,0.468 -3.793,1.315 -6.332,2.496 -8.676,4.069 -9.207,4.425 -9.733,4.558 -10.358,4.557 -16.842,4.544 -23.327,4.549 -29.812,4.549 h -1.097 c -0.1,0.416 0.197,0.592 0.371,0.804 3.372,4.105 6.744,8.209 10.144,12.291 0.257,0.308 0.098,0.489 0.013,0.706 -0.635,1.621 -1.138,3.279 -1.496,4.984 -3.616,17.226 7.837,33.579 24.607,36.455 9.012,1.546 17.167,-0.559 24.404,-6.171 0.315,-0.245 0.658,-0.454 0.988,-0.679 2.714,-1.745 4.567,-4.291 6.223,-6.955 3.044,-4.896 4.555,-10.23 4.597,-16.047 0.057,-7.62 -2.4,-14.265 -7.148,-20.134 C 30.826,8.606 29.67,7.587 28.58,6.505 28.366,6.293 28.122,6.115 27.807,6.074 27.366,6.066 27.076,6.355 26.775,6.612 c -2.24,1.915 -4.756,3.253 -7.701,3.704 -0.298,0.046 -0.583,0.132 -0.815,0.34 -0.05,0.043 -0.094,0.092 -0.134,0.145 -0.932,1.229 -1.515,1.161 -2.157,-0.254 -0.445,-1.634 -0.549,-3.255 0.174,-4.844 0.492,-0.946 0.721,-1.038 1.576,-0.559 0.35,0.196 0.693,0.369 1.105,0.359 C 20.193,5.324 21.388,4.73 22.498,3.944 22.794,3.735 23.079,3.503 23.091,3.089 23.028,2.583 22.629,2.381 22.247,2.18 18.541,0.224 14.591,-0.831 10.416,-1.195 8.069,-1.4 5.765,-1.214 3.451,-0.948 2.255,-0.811 1.089,-0.538 0,0"
             style="fill:#f1f1f2;fill-opacity:1;fill-rule:nonzero;stroke:none"
             id="path453" />
        </g>
        <g
           id="g455"
           transform="translate(265.2167,346.7086)">
          <path
             d="m 0,0 c 0.253,-0.266 0.5,-0.536 0.758,-0.796 5.159,-5.205 7.448,-11.49 6.81,-18.759 -0.899,-10.237 -8.774,-18.772 -18.916,-20.499 -13.482,-2.296 -24.973,6.834 -26.888,19.007 -1.234,7.841 1.065,14.653 6.668,20.317 0.304,0.307 0.666,0.56 0.898,0.936 0.718,1.25 1.996,1.831 3.134,2.557 0.75,0.479 1.548,0.875 2.178,1.525 0.59,-0.055 1.112,0.182 1.644,0.375 6.242,2.271 12.375,1.991 18.4,-0.787 C -3.776,3.028 -2.233,2.19 -0.869,1.062 -0.501,0.759 -0.207,0.422 0,0"
             style="fill:#1d1d1d;fill-opacity:1;fill-rule:nonzero;stroke:none"
             id="path457" />
        </g>
        <g
           id="g459"
           transform="translate(260.9761,369.1511)">
          <path
             d="m 0,0 c 2.51,2.173 4.71,4.612 6.449,7.455 2.13,3.485 3.541,7.247 4.151,11.272 0.425,2.803 0.396,5.636 0.102,8.468 -0.396,3.8 -1.582,7.341 -3.344,10.704 C 6.082,40.333 4.462,42.527 2.567,44.516 1.855,45.264 1.129,45.999 0.41,46.741 2.772,46.182 4.953,45.165 7.009,43.921 15.261,38.929 20.273,31.667 21.827,22.142 22.698,16.806 22.128,11.554 20.136,6.498 19.903,5.907 19.96,5.586 20.401,5.079 c 1.732,-1.988 3.367,-4.062 5.038,-6.104 1.649,-2.016 3.299,-4.032 4.947,-6.05 0.1,-0.123 0.237,-0.231 0.228,-0.508 C 30.277,-7.599 29.928,-7.63 29.579,-7.63 23.133,-7.633 16.686,-7.642 10.24,-7.62 9.473,-7.617 8.829,-7.773 8.186,-8.211 6.973,-9.037 5.701,-9.776 4.323,-10.308 3.892,-10.128 3.946,-9.719 3.908,-9.375 3.574,-6.296 2.507,-3.527 0.5,-1.139 0.231,-0.819 -0.093,-0.493 0,0"
             style="fill:#e9d8ea;fill-opacity:1;fill-rule:nonzero;stroke:none"
             id="path461" />
        </g>
        <g
           id="g463"
           transform="translate(260.9761,369.1511)">
          <path
             d="m 0,0 c 0.335,-0.413 0.676,-0.82 1.003,-1.239 1.965,-2.522 3.071,-5.372 3.265,-8.57 0.01,-0.166 0.036,-0.331 0.055,-0.498 -0.013,-3.184 -0.024,-6.368 -0.041,-9.551 -0.005,-0.862 -0.027,-1.723 -0.041,-2.585 -1.513,1.171 -3.002,2.378 -4.756,3.189 -0.219,0.101 -0.383,0.254 -0.492,0.469 -0.264,0.247 -0.338,0.575 -0.338,0.911 -0.003,1.796 -0.111,3.594 0.058,5.386 0.007,2.081 -0.135,4.131 -1.122,6.034 -0.434,0.838 -0.937,1.619 -1.592,2.293 -0.331,0.342 -0.584,0.722 -0.768,1.155 -1.274,1.152 -2.794,1.79 -4.456,2.129 -0.87,-0.154 -1.752,-0.569 -2.582,0.122 -0.9,1.774 -0.85,3.575 -0.152,5.394 0.871,0.524 1.739,0.576 2.601,-0.02 C -8.648,4.466 -7.932,4.338 -7.23,4.155 -4.818,3.523 -2.681,2.372 -0.82,0.709 -0.551,0.469 -0.274,0.236 0,0"
             style="fill:#000000;fill-opacity:1;fill-rule:nonzero;stroke:none"
             id="path465" />
        </g>
        <g
           id="g467"
           transform="translate(256.2073,366.1453)">
          <path
             d="M 0,0 C 2.4,-1.897 3.559,-4.422 3.735,-7.431 3.77,-8.028 3.708,-8.629 3.691,-9.229 3.521,-9.556 3.219,-9.691 2.884,-9.762 c -6.642,-1.392 -13.07,-0.768 -19.26,2.06 -1.41,0.728 -2.873,1.362 -4.164,2.307 -0.319,0.234 -0.686,0.419 -0.796,0.847 -0.486,0.511 -1.165,0.792 -1.607,1.356 0.615,0.076 1.186,-0.147 1.77,-0.269 1.371,-0.286 2.742,-0.533 4.15,-0.548 0.63,-0.007 1.261,-0.176 1.888,-0.163 5.104,0.11 9.986,1.135 14.515,3.581 0.26,0.14 0.57,0.23 0.62,0.591"
             style="fill:#e9d7e9;fill-opacity:1;fill-rule:nonzero;stroke:none"
             id="path469" />
        </g>
        <g
           id="g471"
           transform="translate(234.871,361.597)">
          <path
             d="M 0,0 C 1.601,-1.048 3.259,-1.996 4.964,-2.864 5.156,-3.181 5.268,-3.52 5.27,-3.895 5.278,-5.811 5.29,-7.726 5.262,-9.642 5.256,-10.007 5.206,-10.371 4.909,-10.639 4.828,-11.012 4.884,-11.419 4.4,-11.624 c -1.751,-0.742 -3.201,-1.958 -4.724,-3.058 -0.013,3.405 -0.028,6.81 -0.037,10.214 -0.003,1.335 -0.057,2.673 0.225,3.991 C -0.101,-0.315 -0.046,-0.159 0,0"
             style="fill:#000000;fill-opacity:1;fill-rule:nonzero;stroke:none"
             id="path473" />
        </g>
        <g
           id="g475"
           transform="translate(250.2061,396.0027)">
          <path
             d="M 0,0 C 1.179,0.545 2.287,1.07 3.406,1.571 4.506,2.062 5.595,1.807 6.283,0.917 6.621,0.479 6.764,-0.027 6.763,-0.579 6.76,-2.449 6.791,-4.319 6.754,-6.188 6.717,-8.051 5.092,-9.061 3.391,-8.311 2.567,-7.948 1.758,-7.549 0.937,-7.178 0.64,-7.044 0.359,-6.847 -0.015,-6.847 -0.147,-7.46 -0.068,-8.061 -0.081,-8.656 c -0.049,-2.165 -1.428,-3.582 -3.594,-3.589 -5.744,-0.019 -11.487,-0.019 -17.231,-0.001 -2.174,0.007 -3.584,1.412 -3.597,3.569 -0.021,3.54 0.022,7.08 -0.017,10.619 -0.021,1.878 1.502,3.595 3.629,3.578 C -15.148,5.474 -9.404,5.516 -3.661,5.498 -1.513,5.491 -0.126,4.057 -0.082,1.893 -0.069,1.303 -0.143,0.706 0,0"
             style="fill:#7f3f98;fill-opacity:1;fill-rule:nonzero;stroke:none"
             id="path477" />
        </g>
        <g
           id="g479"
           transform="translate(251.6184,373.7702)">
          <path
             d="M 0,0 C -0.867,0.006 -1.734,0.013 -2.601,0.019 -2.396,0.651 -2.068,1.23 -1.344,1.253 -0.555,1.277 -0.222,0.663 0,0"
             style="fill:#7f3f98;fill-opacity:1;fill-rule:nonzero;stroke:none"
             id="path481" />
        </g>
        <g
           id="g483"
           transform="translate(249.1691,368.3965)">
          <path
             d="M 0,0 C 0.869,0.088 1.732,0.06 2.585,-0.123 2.417,-0.218 2.241,-0.272 2.089,-0.417 1.148,-1.31 0.656,-1.205 0,0"
             style="fill:#7f3f98;fill-opacity:1;fill-rule:nonzero;stroke:none"
             id="path485" />
        </g>
        <g
           id="g487"
           transform="translate(248.1644,328.985)">
          <path
             d="M 0,0 C -0.364,0.247 -0.65,0.418 -0.911,0.622 -2.768,2.074 -2.995,4.842 -1.405,6.571 0.196,8.314 2.94,8.34 4.568,6.626 6.188,4.921 6.01,2.156 4.182,0.667 4.053,0.562 3.922,0.451 3.773,0.38 3.421,0.211 3.407,0.007 3.568,-0.34 4.185,-1.669 4.769,-3.014 5.356,-4.357 5.488,-4.66 5.643,-4.955 5.669,-5.3 5.74,-6.265 5.152,-6.981 4.15,-7.023 3.084,-7.069 2.015,-7.037 0.948,-7.038 0.414,-7.039 -0.121,-7.06 -0.653,-7.031 c -1.254,0.068 -1.919,1.061 -1.463,2.237 0.361,0.931 0.802,1.83 1.208,2.744 C -0.612,-1.383 -0.317,-0.715 0,0"
             style="fill:#ffffff;fill-opacity:1;fill-rule:nonzero;stroke:none"
             id="path489" />
        </g>
      </g>
    </g>
  </g>
</svg>
