<?xml version="1.0" encoding="UTF-8" standalone="no"?>
<svg
   xmlns:dc="http://purl.org/dc/elements/1.1/"
   xmlns:cc="http://creativecommons.org/ns#"
   xmlns:rdf="http://www.w3.org/1999/02/22-rdf-syntax-ns#"
   xmlns:svg="http://www.w3.org/2000/svg"
   xmlns="http://www.w3.org/2000/svg"
   xmlns:sodipodi="http://sodipodi.sourceforge.net/DTD/sodipodi-0.dtd"
   xmlns:inkscape="http://www.inkscape.org/namespaces/inkscape"
   width="81.080757mm"
   height="60.327797mm"
   viewBox="0 0 81.080757 60.327797"
   version="1.1"
   id="svg767"
   inkscape:version="1.0.1 (1.0.1+r74)"
   sodipodi:docname="logo_md.svg">
  <defs
     id="defs761">
    <clipPath
       clipPathUnits="userSpaceOnUse"
       id="clipPath643">
      <path
         d="m 240.436,601.728 c 7.625,8.203 18.448,12.341 29.261,11.699 v 0 c 6.086,-0.352 12.173,-2.222 17.682,-5.731 v 0 c 17.236,-10.978 22.312,-33.85 11.33,-51.09 v 0 c -4.134,-6.49 -9.956,-11.256 -16.534,-14.09 v 0 c 12.957,-0.766 25.939,5.334 33.409,17.062 v 0 c 10.801,16.957 6.068,39.36 -10.49,50.541 v 0 c -0.277,0.183 -0.557,0.368 -0.841,0.549 v 0 c -0.283,0.181 -0.571,0.357 -0.852,0.53 v 0 c -0.332,0.198 -0.662,0.389 -0.999,0.578 v 0 c -7.786,4.504 -16.335,6.663 -24.789,6.663 v 0 c -13.919,0 -27.582,-5.849 -37.177,-16.711"
         id="path641" />
    </clipPath>
    <linearGradient
       x1="0"
       y1="0"
       x2="1"
       y2="0"
       gradientUnits="userSpaceOnUse"
       gradientTransform="matrix(72.558258,-46.216545,-46.216545,-72.558258,244.27914,607.76184)"
       spreadMethod="pad"
       id="linearGradient657">
      <stop
         style="stop-opacity:1;stop-color:#bc9cc9"
         offset="0"
         id="stop649" />
      <stop
         style="stop-opacity:1;stop-color:#6d3e98"
         offset="0.418719"
         id="stop651" />
      <stop
         style="stop-opacity:1;stop-color:#683695"
         offset="1"
         id="stop653" />
      <stop
         style="stop-opacity:1;stop-color:#683695"
         offset="1"
         id="stop655" />
    </linearGradient>
    <clipPath
       clipPathUnits="userSpaceOnUse"
       id="clipPath667">
      <path
         d="M 0,700 H 1000 V 0 H 0 Z"
         id="path665" />
    </clipPath>
    <clipPath
       clipPathUnits="userSpaceOnUse"
       id="clipPath675">
      <path
         d="M 227.937,613.492 H 327.23 V 519.155 H 227.937 Z"
         id="path673" />
    </clipPath>
    <clipPath
       clipPathUnits="userSpaceOnUse"
       id="clipPath679">
      <path
         d="m 305.093,610.12 c 22.442,-14.929 28.908,-45.147 14.359,-67.988 -14.727,-23.121 -45.416,-29.927 -68.537,-15.2 -23.125,14.729 -29.927,45.416 -15.2,68.537 0.089,0.139 0.181,0.283 0.274,0.42 1.355,2.086 2.845,4.035 4.446,5.84 7.624,8.202 18.448,12.341 29.26,11.698 -6.575,-2.828 -12.397,-7.595 -16.534,-14.089 -10.978,-17.236 -5.909,-40.109 11.331,-51.091 5.508,-3.508 11.596,-5.378 17.682,-5.73 12.958,-0.766 25.939,5.333 33.409,17.061 10.801,16.957 6.067,39.361 -10.49,50.542"
         id="path677" />
    </clipPath>
    <linearGradient
       x1="0"
       y1="0"
       x2="1"
       y2="0"
       gradientUnits="userSpaceOnUse"
       gradientTransform="matrix(83.737152,-53.337025,-53.337025,-83.737152,235.71191,595.46399)"
       spreadMethod="pad"
       id="linearGradient687">
      <stop
         style="stop-opacity:1;stop-color:#683695"
         offset="0"
         id="stop681" />
      <stop
         style="stop-opacity:1;stop-color:#6d3e98"
         offset="0.497537"
         id="stop683" />
      <stop
         style="stop-opacity:1;stop-color:#cfb2d5"
         offset="1"
         id="stop685" />
    </linearGradient>
  </defs>
  <sodipodi:namedview
     id="base"
     pagecolor="#ffffff"
     bordercolor="#666666"
     borderopacity="1.0"
     inkscape:pageopacity="0.0"
     inkscape:pageshadow="2"
     inkscape:zoom="1.4"
     inkscape:cx="-27.603409"
     inkscape:cy="93.528735"
     inkscape:document-units="mm"
     inkscape:current-layer="layer1"
     inkscape:document-rotation="0"
     showgrid="false"
     inkscape:window-width="1514"
     inkscape:window-height="1016"
     inkscape:window-x="203"
     inkscape:window-y="27"
     inkscape:window-maximized="0" />
  <metadata
     id="metadata764">
    <rdf:RDF>
      <cc:Work
         rdf:about="">
        <dc:format>image/svg+xml</dc:format>
        <dc:type
           rdf:resource="http://purl.org/dc/dcmitype/StillImage" />
        <dc:title></dc:title>
      </cc:Work>
    </rdf:RDF>
  </metadata>
  <g
     inkscape:label="Layer 1"
     inkscape:groupmode="layer"
     id="layer1"
     transform="translate(-40.248658,-102.72659)">
    <g
       id="g601"
       transform="matrix(0.60762879,0,0,-0.60762879,61.971752,110.95584)">
      <path
         d="m 0,0 h 23.944 c 0.6,0 1.091,0.491 1.091,1.091 V 5.7 c 0,0.6 -0.491,1.091 -1.091,1.091 H 0 C -0.6,6.791 -1.091,6.3 -1.091,5.7 V 1.091 C -1.091,0.491 -0.6,0 0,0"
         style="fill:#9669ad;fill-opacity:1;fill-rule:nonzero;stroke:none"
         id="path603" />
    </g>
    <g
       id="g605"
       transform="matrix(0.60762879,0,0,-0.60762879,45.817027,137.61739)">
      <path
         d="m 0,0 h 13.867 c 0.6,0 1.091,0.491 1.091,1.091 V 5.7 c 0,0.6 -0.491,1.091 -1.091,1.091 H 0 C -0.6,6.791 -1.091,6.3 -1.091,5.7 V 1.091 C -1.091,0.491 -0.6,0 0,0"
         style="fill:#9669ad;fill-opacity:1;fill-rule:nonzero;stroke:none"
         id="path607" />
    </g>
    <g
       id="g609"
       transform="matrix(0.60762879,0,0,-0.60762879,55.161449,147.93929)">
      <path
         d="m 0,0 h 21.622 c 0.6,0 1.091,0.491 1.091,1.091 V 5.7 c 0,0.6 -0.491,1.091 -1.091,1.091 H 0 C -0.6,6.791 -1.091,6.3 -1.091,5.7 V 1.091 C -1.091,0.491 -0.6,0 0,0"
         style="fill:#9669ad;fill-opacity:1;fill-rule:nonzero;stroke:none"
         id="path611" />
    </g>
    <g
       id="g613"
       transform="matrix(0.60762879,0,0,-0.60762879,44.776587,148.18229)">
      <path
         d="m 0,0 h 9.322 c 0.6,0 1.091,0.491 1.091,1.091 V 5.7 c 0,0.6 -0.491,1.091 -1.091,1.091 H 0 C -0.6,6.791 -1.091,6.3 -1.091,5.7 V 1.091 C -1.091,0.491 -0.6,0 0,0"
         style="fill:#9669ad;fill-opacity:1;fill-rule:nonzero;stroke:none"
         id="path615" />
    </g>
    <g
       id="g617"
       transform="matrix(0.60762879,0,0,-0.60762879,52.409801,159.10855)">
      <path
         d="m 0,0 h 45.653 c 0.6,0 1.091,0.491 1.091,1.091 V 5.7 c 0,0.6 -0.491,1.091 -1.091,1.091 H 0 C -0.6,6.791 -1.091,6.3 -1.091,5.7 V 1.091 C -1.091,0.491 -0.6,0 0,0"
         style="fill:#9669ad;fill-opacity:1;fill-rule:nonzero;stroke:none"
         id="path619" />
    </g>
    <g
       id="g621"
       transform="matrix(0.60762879,0,0,-0.60762879,54.526356,124.72484)">
      <path
         d="m 0,0 h 15.422 c 0.6,0 1.091,0.491 1.091,1.091 V 5.7 c 0,0.6 -0.491,1.091 -1.091,1.091 H 0 C -0.6,6.791 -1.091,6.3 -1.091,5.7 V 1.091 C -1.091,0.491 -0.6,0 0,0"
         style="fill:#9669ad;fill-opacity:1;fill-rule:nonzero;stroke:none"
         id="path623" />
    </g>
    <g
       id="g625"
       transform="matrix(0.60762879,0,0,-0.60762879,57.339492,137.45538)">
      <path
         d="m 0,0 h 17.724 c 0.6,0 1.09,0.491 1.09,1.091 V 5.7 c 0,0.6 -0.49,1.091 -1.09,1.091 H 0 C -0.6,6.791 -1.091,6.3 -1.091,5.7 V 1.091 C -1.091,0.491 -0.6,0 0,0"
         style="fill:#9669ad;fill-opacity:1;fill-rule:nonzero;stroke:none"
         id="path627" />
    </g>
    <g
       id="g629"
       transform="matrix(0.60762879,0,0,-0.60762879,50.339185,110.90183)">
      <path
         d="m 0,0 h 11.048 c 0.6,0 1.091,0.491 1.091,1.091 V 5.7 c 0,0.6 -0.491,1.091 -1.091,1.091 H 0 C -0.6,6.791 -1.091,6.3 -1.091,5.7 V 1.091 C -1.091,0.491 -0.6,0 0,0"
         style="fill:#9669ad;fill-opacity:1;fill-rule:nonzero;stroke:none"
         id="path631" />
    </g>
    <path
       d="m 40.911581,124.89114 h 9.37085 c 0.364578,0 0.662924,-0.29834 0.662924,-0.66292 v -2.80056 c 0,-0.36458 -0.298346,-0.66292 -0.662924,-0.66292 h -9.37085 c -0.364577,0 -0.662923,0.29834 -0.662923,0.66292 v 2.80056 c 0,0.36458 0.298346,0.66292 0.662923,0.66292"
       style="fill:#9669ad;fill-opacity:1;fill-rule:nonzero;stroke:none;stroke-width:0.607626"
       id="path635" />
    <g
       id="g637"
       transform="matrix(0.60762879,0,0,-0.60762879,-77.504699,478.50793)">
      <g
         id="g639"
         clip-path="url(#clipPath643)">
        <g
           id="g645">
          <g
             id="g647">
            <path
               d="m 240.436,601.728 c 7.625,8.203 18.448,12.341 29.261,11.699 v 0 c 6.086,-0.352 12.173,-2.222 17.682,-5.731 v 0 c 17.236,-10.978 22.312,-33.85 11.33,-51.09 v 0 c -4.134,-6.49 -9.956,-11.256 -16.534,-14.09 v 0 c 12.957,-0.766 25.939,5.334 33.409,17.062 v 0 c 10.801,16.957 6.068,39.36 -10.49,50.541 v 0 c -0.277,0.183 -0.557,0.368 -0.841,0.549 v 0 c -0.283,0.181 -0.571,0.357 -0.852,0.53 v 0 c -0.332,0.198 -0.662,0.389 -0.999,0.578 v 0 c -7.786,4.504 -16.335,6.663 -24.789,6.663 v 0 c -13.919,0 -27.582,-5.849 -37.177,-16.711"
               style="fill:url(#linearGradient657);stroke:none"
               id="path659" />
          </g>
        </g>
      </g>
    </g>
    <g
       id="g661"
       transform="matrix(0.60762879,0,0,-0.60762879,-77.504699,478.50793)">
      <g
         id="g663"
         clip-path="url(#clipPath667)">
        <g
           id="g669">
          <g
             id="g671" />
          <g
             id="g701">
            <g
               clip-path="url(#clipPath675)"
               id="g699">
              <g
                 id="g697">
                <g
                   clip-path="url(#clipPath679)"
                   id="g695">
                  <g
                     id="g693">
                    <g
                       id="g691">
                      <path
                         d="m 305.093,610.12 c 22.442,-14.929 28.908,-45.147 14.359,-67.988 -14.727,-23.121 -45.416,-29.927 -68.537,-15.2 -23.125,14.729 -29.927,45.416 -15.2,68.537 0.089,0.139 0.181,0.283 0.274,0.42 1.355,2.086 2.845,4.035 4.446,5.84 7.624,8.202 18.448,12.341 29.26,11.698 -6.575,-2.828 -12.397,-7.595 -16.534,-14.089 -10.978,-17.236 -5.909,-40.109 11.331,-51.091 5.508,-3.508 11.596,-5.378 17.682,-5.73 12.958,-0.766 25.939,5.333 33.409,17.061 10.801,16.957 6.067,39.361 -10.49,50.542"
                         style="fill:url(#linearGradient687);stroke:none"
                         id="path689" />
                    </g>
                  </g>
                </g>
              </g>
            </g>
          </g>
        </g>
      </g>
    </g>
  </g>
</svg>
